<?xml version="1.0" encoding="utf-8"?>
<!-- Generator: Adobe Illustrator 24.3.0, SVG Export Plug-In . SVG Version: 6.00 Build 0)  -->
<svg version="1.1" id="Layer_1" xmlns="http://www.w3.org/2000/svg" xmlns:xlink="http://www.w3.org/1999/xlink" x="0px" y="0px"
	 viewBox="0 0 256 256" style="enable-background:new 0 0 256 256;" xml:space="preserve">
<style type="text/css">
	.st0{fill:#FFFFFF;}
</style>
<g transform="translate(1.4065934065934016 1.4065934065934016) scale(2.81 2.81)">
	<path class="st0" d="M62.3,90H27.7C12.4,90,0,77.6,0,62.3V27.7C0,12.4,12.4,0,27.7,0h34.5C77.6,0,90,12.4,90,27.7v34.5
		C90,77.6,77.6,90,62.3,90z M27.7,7C16.3,7,7,16.3,7,27.7v34.5C7,73.7,16.3,83,27.7,83h34.5C73.7,83,83,73.7,83,62.3V27.7
		C83,16.3,73.7,7,62.3,7H27.7z"/>
	<path class="st0" d="M45.3,70.5C31.4,70.5,20,59.2,20,45.3S31.4,20,45.3,20s25.2,11.3,25.2,25.2S59.2,70.5,45.3,70.5z M45.3,27
		C35.2,27,27,35.2,27,45.3s8.2,18.2,18.2,18.2s18.2-8.2,18.2-18.2C63.5,35.2,55.3,27,45.3,27z"/>
	<circle class="st0" cx="70.6" cy="19.9" r="4.9"/>
</g>
</svg>
