<?xml version="1.0" encoding="utf-8"?>
<!-- Generator: Adobe Illustrator 24.3.0, SVG Export Plug-In . SVG Version: 6.00 Build 0)  -->
<svg version="1.1" id="Layer_1" xmlns="http://www.w3.org/2000/svg" xmlns:xlink="http://www.w3.org/1999/xlink" x="0px" y="0px"
	 viewBox="0 0 256 256" style="enable-background:new 0 0 256 256;" xml:space="preserve">
<style type="text/css">
	.st0{fill:#FFFFFF;}
</style>
<g transform="translate(1.4065934065934016 1.4065934065934016) scale(2.81 2.81)">
	<path class="st0" d="M83.3,90h-24c-1.1,0-2-0.9-2-2V54.7c0-1.1,0.9-2,2-2h9.4l1.2-9H59.3c-1.1,0-2-0.9-2-2v-8.3
		c0-3.6,0.9-8.3,8.4-8.3l4.9,0v-7.8c-1.9-0.2-4.8-0.3-8-0.3c-9.2,0-14.7,5.7-14.7,15.2v9.6c0,1.1-0.9,2-2,2h-9.2v9h9.2
		c1.1,0,2,0.9,2,2V88c0,1.1-0.9,2-2,2H6.7C3,90,0,87,0,83.3V6.7C0,3,3,0,6.7,0h76.5C87,0,90,3,90,6.7v76.5C90,87,87,90,83.3,90z
		 M61.3,86h22c1.5,0,2.7-1.2,2.7-2.7V6.7C86,5.2,84.8,4,83.3,4H6.7C5.2,4,4,5.2,4,6.7v76.5C4,84.8,5.2,86,6.7,86h37.1V56.7h-9.2
		c-1.1,0-2-0.9-2-2v-13c0-1.1,0.9-2,2-2h9.2v-7.6C43.8,20.3,51,13,62.5,13c4.8,0,9,0.4,10.3,0.5c1,0.1,1.7,1,1.7,2v11.6
		c0,1.1-0.9,2-2,2l-6.9,0c-4,0-4.4,1.4-4.4,4.3v6.3h10.9c0.6,0,1.1,0.2,1.5,0.7c0.4,0.4,0.6,1,0.5,1.6l-1.7,13c-0.1,1-1,1.7-2,1.7
		h-9.2L61.3,86L61.3,86z"/>
</g>
</svg>
