<?xml version="1.0" encoding="utf-8"?>
<!-- Generator: Adobe Illustrator 24.3.0, SVG Export Plug-In . SVG Version: 6.00 Build 0)  -->
<svg version="1.1" id="Layer_1" xmlns="http://www.w3.org/2000/svg" xmlns:xlink="http://www.w3.org/1999/xlink" x="0px" y="0px"
	 viewBox="0 0 256 256" style="enable-background:new 0 0 256 256;" xml:space="preserve">
<style type="text/css">
	.st0{fill:#FFFFFF;}
</style>
<g transform="translate(1.4065934065934016 1.4065934065934016) scale(2.81 2.81)">
	<path class="st0" d="M51.7,90H35.9c-1.1,0-2-0.9-2-2V50.8H22.7c-1.1,0-2-0.9-2-2V33.5c0-1.1,0.9-2,2-2h11.2v-9.3
		C33.9,8.5,42.2,0,55.5,0c5.6,0,10.5,0.4,12.1,0.6c1,0.1,1.7,1,1.7,2v13.7c0,1.1-0.9,2-2,2l-8.1,0c-4.8,0-5.6,1.6-5.6,5.4v7.8h13.1
		c0.6,0,1.1,0.2,1.5,0.7c0.4,0.4,0.6,1,0.5,1.6l-2,15.3c-0.1,1-1,1.7-2,1.7H53.7V88C53.7,89.1,52.8,90,51.7,90z M37.9,86h11.8V48.8
		c0-1.1,0.9-2,2-2h11.4l1.5-11.3H51.7c-1.1,0-2-0.9-2-2v-9.8c0-4.1,1-9.4,9.6-9.4l6.1,0V4.4C63.1,4.2,59.5,4,55.5,4
		c-11.1,0-17.7,6.8-17.7,18.2v11.3c0,1.1-0.9,2-2,2H24.7v11.3h11.2c1.1,0,2,0.9,2,2L37.9,86L37.9,86z"/>
</g>
</svg>
