<?xml version="1.0" encoding="utf-8"?>
<!-- Generator: Adobe Illustrator 24.3.0, SVG Export Plug-In . SVG Version: 6.00 Build 0)  -->
<svg version="1.1" id="Layer_1" xmlns="http://www.w3.org/2000/svg" xmlns:xlink="http://www.w3.org/1999/xlink" x="0px" y="0px"
	 viewBox="0 0 256 256" style="enable-background:new 0 0 256 256;" xml:space="preserve">
<style type="text/css">
	.st0{fill:#FFFFFF;}
</style>
<g transform="translate(1.4065934065934016 1.4065934065934016) scale(2.81 2.81)">
	<path class="st0" d="M23.6,89.9H1.4V28.4h22.2L23.6,89.9L23.6,89.9z M5.8,85.5h13.3V32.9H5.8V85.5z M12.5,25.1
		C5.6,25.1,0,19.5,0,12.6C0,5.7,5.6,0.1,12.5,0.1C19.4,0.1,25,5.7,25,12.6C25,19.5,19.4,25.1,12.5,25.1z M12.5,4.5
		c-4.4,0-8.1,3.6-8.1,8.1c0,4.4,3.6,8.1,8.1,8.1s8.1-3.6,8.1-8.1C20.6,8.1,16.9,4.5,12.5,4.5z"/>
	<path class="st0" d="M90,89.9H67.8V60c0-8.8-1-12.9-7-12.9c-6.1,0-8.4,3.4-8.4,12.4v30.4H30.3V28.4h21.4v4c3.4-3,8.4-5.5,14.8-5.5
		C87.2,27,90,41.9,90,56.4V89.9z M72.3,85.5h13.3V56.4c0-15.4-3.2-25-19.1-25c-7.8,0-12.9,4.3-14.8,8l-0.6,1.2h-3.8v-7.8H34.7v52.6
		H48v-26c0-4.6,0-16.9,12.9-16.9c11.4,0,11.4,11.3,11.4,17.3V85.5z"/>
</g>
</svg>
