<?xml version="1.0" encoding="utf-8"?>
<!-- Generator: Adobe Illustrator 24.3.0, SVG Export Plug-In . SVG Version: 6.00 Build 0)  -->
<svg version="1.1" id="Layer_1" xmlns="http://www.w3.org/2000/svg" xmlns:xlink="http://www.w3.org/1999/xlink" x="0px" y="0px"
	 viewBox="0 0 256 256" style="enable-background:new 0 0 256 256;" xml:space="preserve">
<style type="text/css">
	.st0{fill:#458CF4;}
</style>
<g transform="translate(1.4065934065934016 1.4065934065934016) scale(2.81 2.81)">
	<path class="st0" d="M50.9,23.2H12.6c-0.6,0-1-0.4-1-1s0.4-1,1-1h38.4c0.6,0,1,0.4,1,1S51.5,23.2,50.9,23.2z"/>
	<path class="st0" d="M89,85.8H12.6C5.6,85.8,0,81.1,0,75.2c0-0.6,0.4-1,1-1s1,0.4,1,1c0,4.7,4.7,8.6,10.6,8.6H88V23.2H71.5
		c-0.6,0-1-0.4-1-1s0.4-1,1-1H89c0.6,0,1,0.4,1,1v62.7C90,85.4,89.6,85.8,89,85.8z"/>
	<path class="st0" d="M1,76.2c-0.6,0-1-0.4-1-1V14.8C0,9,5.6,4.2,12.6,4.2c0.6,0,1,0.4,1,1v60.4c0,0.6-0.4,1-1,1
		C6.7,66.6,2,70.5,2,75.2C2,75.8,1.6,76.2,1,76.2z M11.6,6.3C6.2,6.7,2,10.4,2,14.8v54.7c2.1-2.7,5.6-4.6,9.6-4.8V6.3z"/>
	<path class="st0" d="M55.5,85.8h-8.1c-0.6,0-1-0.4-1-1V54.5H12.6c-0.6,0-1-0.4-1-1v-8.1c0-0.6,0.4-1,1-1h26.6L17.4,22.9
		c-0.3-0.3-0.4-0.7-0.2-1.1s0.5-0.6,0.9-0.6h11.5c0.3,0,0.5,0.1,0.7,0.3l23.2,22.9H89c0.6,0,1,0.4,1,1v8.1c0,0.6-0.4,1-1,1H56.5
		v30.3C56.5,85.4,56.1,85.8,55.5,85.8z M48.4,83.8h6.1V53.5c0-0.6,0.4-1,1-1H88v-6.1H53.1c-0.3,0-0.5-0.1-0.7-0.3L29.2,23.2h-8.7
		l21.8,21.5c0.3,0.3,0.4,0.7,0.2,1.1s-0.5,0.6-0.9,0.6h-28v6.1h33.9c0.6,0,1,0.4,1,1V83.8z"/>
	<path class="st0" d="M47.4,63.8H30.1c-0.6,0-1-0.4-1-1v-9.3c0-0.6,0.4-1,1-1h17.3c0.6,0,1,0.4,1,1v9.3C48.4,63.4,48,63.8,47.4,63.8
		z M31.1,61.8h15.3v-7.3H31.1V61.8z"/>
	<path class="st0" d="M61.2,39.9c-0.3,0-0.6-0.1-0.8-0.4c-3.5-4.3-11.6-15.1-11.6-22.9c0-6.8,5.6-12.4,12.4-12.4s12.4,5.6,12.4,12.4
		c0,7.8-8.1,18.6-11.6,22.9C61.8,39.7,61.5,39.9,61.2,39.9z M61.2,6.2c-5.7,0-10.4,4.7-10.4,10.4c0,6.7,6.8,16.1,10.4,20.7
		c3.7-4.6,10.4-14,10.4-20.7C71.6,10.8,66.9,6.2,61.2,6.2z"/>
	<path class="st0" d="M61.2,22.3c-2.9,0-5.3-2.4-5.3-5.3s2.4-5.3,5.3-5.3c2.9,0,5.3,2.4,5.3,5.3S64.1,22.3,61.2,22.3z M61.2,13.7
		c-1.8,0-3.3,1.5-3.3,3.3c0,1.8,1.5,3.3,3.3,3.3s3.3-1.5,3.3-3.3C64.5,15.2,63,13.7,61.2,13.7z"/>
</g>
</svg>
