<svg xmlns="http://www.w3.org/2000/svg" xmlns:xlink="http://www.w3.org/1999/xlink" version="1.1" width="256" height="256" viewBox="0 0 256 256" xml:space="preserve">

<defs>
</defs>
<g style="stroke: none; stroke-width: 0; stroke-dasharray: none; stroke-linecap: butt; stroke-linejoin: miter; stroke-miterlimit: 10; fill: none; fill-rule: nonzero; opacity: 1;" transform="translate(1.4065934065934016 1.4065934065934016) scale(2.81 2.81)" >
	<path d="M 71.896 20.488 c -0.33 -5.073 -2.434 -9.814 -6.055 -13.505 C 61.426 2.48 55.263 0 48.489 0 H 23.219 c -2.686 0 -4.938 1.924 -5.354 4.575 L 7.947 67.459 c -0.226 1.438 0.186 2.896 1.131 4.001 c 0.945 1.105 2.321 1.739 3.776 1.739 H 24.05 l -1.743 11.056 c -0.43 2.703 1.419 5.252 4.113 5.682 C 26.681 89.979 26.946 90 27.211 90 h 12.64 c 2.682 -0.002 4.933 -1.926 5.353 -4.577 l 3.252 -20.624 h 6.946 c 13.262 0 24.382 -9.533 26.441 -22.667 C 83.205 33.454 79.33 25.142 71.896 20.488 z M 14.063 67.199 L 23.714 6 h 24.775 c 5.149 0 9.79 1.841 13.069 5.184 c 2.913 2.97 4.473 6.88 4.394 11.01 c -0.01 0.493 -0.051 0.986 -0.105 1.475 c -0.027 0.245 -0.051 0.49 -0.089 0.731 C 64.16 34.597 55.533 41.998 45.246 41.998 H 33.603 c -1.007 0 -1.953 0.271 -2.764 0.75 c -1.352 0.797 -2.33 2.171 -2.591 3.828 l -3.252 20.624 H 14.063 z M 75.915 41.202 c -1.599 10.196 -10.226 17.597 -20.514 17.597 h -7.44 c -2.685 0 -4.937 1.925 -5.356 4.578 L 39.354 84 H 28.421 l 1.703 -10.801 l 0 0 l 0.47 -2.982 l 3.504 -22.219 h 11.148 c 0.81 0 1.612 -0.039 2.404 -0.109 c 0.217 -0.019 0.428 -0.058 0.643 -0.082 c 0.569 -0.064 1.136 -0.131 1.694 -0.229 c 0.277 -0.049 0.546 -0.119 0.82 -0.176 c 0.487 -0.102 0.973 -0.203 1.45 -0.331 c 0.296 -0.079 0.584 -0.177 0.876 -0.267 c 0.443 -0.135 0.885 -0.27 1.318 -0.427 c 0.3 -0.109 0.591 -0.234 0.886 -0.353 c 0.412 -0.167 0.822 -0.334 1.224 -0.52 c 0.296 -0.137 0.583 -0.287 0.872 -0.435 c 0.385 -0.196 0.768 -0.395 1.143 -0.609 c 0.286 -0.164 0.565 -0.338 0.845 -0.513 c 0.361 -0.225 0.718 -0.454 1.067 -0.695 c 0.274 -0.19 0.541 -0.387 0.808 -0.586 c 0.336 -0.252 0.667 -0.509 0.99 -0.777 c 0.259 -0.214 0.513 -0.433 0.763 -0.656 c 0.311 -0.278 0.615 -0.563 0.914 -0.855 c 0.241 -0.236 0.478 -0.475 0.71 -0.72 c 0.287 -0.303 0.564 -0.615 0.836 -0.932 c 0.221 -0.257 0.44 -0.514 0.651 -0.779 c 0.261 -0.328 0.51 -0.666 0.756 -1.007 c 0.198 -0.274 0.396 -0.548 0.584 -0.83 c 0.236 -0.354 0.455 -0.719 0.674 -1.086 c 0.173 -0.289 0.348 -0.575 0.51 -0.871 c 0.209 -0.381 0.399 -0.774 0.589 -1.168 c 0.146 -0.3 0.297 -0.595 0.432 -0.902 c 0.182 -0.413 0.341 -0.838 0.502 -1.262 c 0.115 -0.303 0.24 -0.6 0.345 -0.909 c 0.156 -0.459 0.285 -0.932 0.418 -1.403 c 0.081 -0.289 0.175 -0.571 0.247 -0.864 c 0.009 -0.038 0.023 -0.073 0.032 -0.111 C 74.943 31.02 76.729 36.023 75.915 41.202 z" style="stroke: none; stroke-width: 1; stroke-dasharray: none; stroke-linecap: butt; stroke-linejoin: miter; stroke-miterlimit: 10; fill: rgb(0,0,0); fill-rule: nonzero; opacity: 1;" transform=" matrix(1 0 0 1 0 0) " stroke-linecap="round" />
</g>
</svg>