<?xml version="1.0" encoding="utf-8"?>
<!-- Generator: Adobe Illustrator 24.3.0, SVG Export Plug-In . SVG Version: 6.00 Build 0)  -->
<svg version="1.1" id="Layer_1" xmlns="http://www.w3.org/2000/svg" xmlns:xlink="http://www.w3.org/1999/xlink" x="0px" y="0px"
	 viewBox="0 0 256 256" style="enable-background:new 0 0 256 256;" xml:space="preserve">
<style type="text/css">
	.st0{fill:#458CF4;}
</style>
<g transform="translate(1.4065934065934016 1.4065934065934016) scale(2.81 2.81)">
	<path class="st0" d="M38.8,51.2l10.9,10.9c1,1,2.5,1.2,3.7,0.5l13-7c1-0.5,2.1-0.5,3.1,0.1l19,11.3c1.4,0.8,1.9,2.5,1.3,3.9
		c-1.6,3.7-4.6,10.5-5.8,13.5c-0.2,0.6-0.6,1.2-1.1,1.7C70.2,97,45,83.6,25.7,64.3C6.4,45-7,19.8,4,7.1C4.4,6.6,5,6.3,5.6,6
		c3-1.2,9.8-4.1,13.5-5.8c1.4-0.6,3.1-0.1,3.9,1.3l11.3,19c0.6,0.9,0.6,2.1,0.1,3.1l-7,13c-0.7,1.2-0.4,2.7,0.5,3.7L38.8,51.2z"/>
</g>
</svg>
